<?xml version="1.0" encoding="UTF-8"?><svg xmlns="http://www.w3.org/2000/svg" viewBox="0 0 411.26 220"><defs><style>.d{fill:#005683;}</style></defs><g id="a"/><g id="b"><g id="c"><g><path class="d" d="M325.13,64.62c36.9,2.19,34.45-53.98,0-55-36.9-2.19-34.45,53.98,0,55Z"/><path class="d" d="M86.13,64.62c34.45-1.03,36.9-57.19,0-55-34.45,1.03-36.9,57.19,0,55Z"/><path class="d" d="M206.13,55c35.68,.52,35.68-55.53,0-55-35.68-.52-35.68,55.53,0,55Z"/><path class="d" d="M373.63,113.77c5.51-37.81-44.95-39.62-70-44.76-27.36-3.77-21.09,29.8-50.08,17.97-1.25-33.02-49.12-22.4-69.92-23.97-13.68,0-24.88,10.57-25.91,23.98-48.09,7.67-5.96-35.98-94.09-9.48-16.58,3.18-27.87,20-26,36.27-50.61,22.36-49.98,57.01,.77,79.07,5.77-28.35,51.77-7.36,69.23-6.35,26.76,5.08,19.64,38.89,49.91,32.77-.45-34.9,96.23-35.11,95.82,.03,45.27-.26,8.95-36.05,94.27-41.27,12.18-2.36,22.4,4.06,25.22,14.82,50.71-22.07,51.43-56.71,.77-79.07ZM85.13,173.62c-34.45-1.03-36.9-57.19,0-55,34.45,1.03,36.9,57.19,0,55Zm120.82,13.74c-35.68,.52-35.68-55.53,0-55,35.68-.52,35.68,55.53,0,55Zm120.18-13.74c-36.9,2.19-34.45-53.98,0-55,36.9-2.19,34.45,53.98,0,55Z"/></g></g></g></svg>